<mxfile host="Electron" agent="Mozilla/5.0 (Macintosh; Intel Mac OS X 10_15_7) AppleWebKit/537.36 (KHTML, like Gecko) draw.io/28.1.2 Chrome/138.0.7204.243 Electron/37.4.0 Safari/537.36" version="28.1.2">
  <diagram name="Page-1" id="XTA1qdD6zokdgy1phI-2">
    <mxGraphModel dx="946" dy="673" grid="1" gridSize="10" guides="1" tooltips="1" connect="1" arrows="1" fold="1" page="1" pageScale="1" pageWidth="850" pageHeight="1100" math="0" shadow="0">
      <root>
        <mxCell id="0" />
        <mxCell id="1" parent="0" />
        <mxCell id="pxKkHdP5sxp04KPQdQQn-1" value="" style="rounded=0;whiteSpace=wrap;html=1;sketch=1;curveFitting=1;jiggle=2;fillColor=#f5f5f5;strokeColor=#666666;fontColor=#333333;" vertex="1" parent="1">
          <mxGeometry x="150" y="200" width="240" height="240" as="geometry" />
        </mxCell>
        <mxCell id="pxKkHdP5sxp04KPQdQQn-2" value="组件1&lt;div&gt;weight=2&lt;/div&gt;" style="rounded=0;whiteSpace=wrap;html=1;sketch=1;curveFitting=1;jiggle=2;fillColor=#d5e8d4;strokeColor=#82b366;fontSize=16;" vertex="1" parent="1">
          <mxGeometry x="150" y="200" width="160" height="60" as="geometry" />
        </mxCell>
        <mxCell id="pxKkHdP5sxp04KPQdQQn-3" value="组件2&lt;div&gt;weight=1&lt;/div&gt;" style="rounded=0;whiteSpace=wrap;html=1;sketch=1;curveFitting=1;jiggle=2;fillColor=#f8cecc;strokeColor=#b85450;fontSize=16;" vertex="1" parent="1">
          <mxGeometry x="310" y="200" width="80" height="60" as="geometry" />
        </mxCell>
        <mxCell id="pxKkHdP5sxp04KPQdQQn-4" value="&lt;div&gt;水平方向&lt;/div&gt;子组件2:1" style="text;html=1;align=center;verticalAlign=middle;whiteSpace=wrap;rounded=0;fontSize=24;" vertex="1" parent="1">
          <mxGeometry x="170" y="120" width="195" height="60" as="geometry" />
        </mxCell>
        <mxCell id="pxKkHdP5sxp04KPQdQQn-5" value="" style="rounded=0;whiteSpace=wrap;html=1;sketch=1;curveFitting=1;jiggle=2;fillColor=#f5f5f5;strokeColor=#666666;fontColor=#333333;" vertex="1" parent="1">
          <mxGeometry x="470" y="200" width="240" height="240" as="geometry" />
        </mxCell>
        <mxCell id="pxKkHdP5sxp04KPQdQQn-6" value="组件1&lt;div&gt;weight=2&lt;/div&gt;" style="rounded=0;whiteSpace=wrap;html=1;sketch=1;curveFitting=1;jiggle=2;fillColor=#d5e8d4;strokeColor=#82b366;fontSize=16;" vertex="1" parent="1">
          <mxGeometry x="470" y="200" width="80" height="160" as="geometry" />
        </mxCell>
        <mxCell id="pxKkHdP5sxp04KPQdQQn-7" value="组件2&lt;div&gt;weight=1&lt;/div&gt;" style="rounded=0;whiteSpace=wrap;html=1;sketch=1;curveFitting=1;jiggle=2;fillColor=#f8cecc;strokeColor=#b85450;fontSize=16;" vertex="1" parent="1">
          <mxGeometry x="470" y="360" width="80" height="80" as="geometry" />
        </mxCell>
        <mxCell id="pxKkHdP5sxp04KPQdQQn-8" value="&lt;div&gt;垂直方向&lt;/div&gt;子组件2:1" style="text;html=1;align=center;verticalAlign=middle;whiteSpace=wrap;rounded=0;fontSize=24;" vertex="1" parent="1">
          <mxGeometry x="490" y="120" width="195" height="60" as="geometry" />
        </mxCell>
      </root>
    </mxGraphModel>
  </diagram>
</mxfile>
